PathFileType	4	(X/Y/Z)	C:/Users/beibeiliu/ov580/test_trc/User1\sequence.30_training_dense_left.trc
DataRate	CameraRate	NumFrames	NumMarkers	Units	OrigDataRate	OrigDataStartFrame	OrigNumFrames
120	120	7	19	mm	120	29	227
Frame#	Time	ThumbCMC			ThumbMCP			ThumbIP			ThumbTip			IndexMCP			IndexPIP			IndexTip			MiddleMCP			MiddlePIP			MiddleTip			RingMCP			RingPIP			RingTip			PinkyMCP			PinkyPIP			PinkyTip			BackHand1			BackHand2			BackHand3	
		X0	Y0	Z0	X1	Y1	Z1	X2	Y2	Z2	X3	Y3	Z3	X4	Y4	Z4	X5	Y5	Z5	X6	Y6	Z6	X7	Y7	Z7	X8	Y8	Z8	X9	Y9	Z9	X10	Y10	Z10	X11	Y11	Z11	X12	Y12	Z12	X13	Y13	Z13	X14	Y14	Z14	X15	Y15	Z15	X16	Y16	Z16	X17	Y17	Z17	X18	Y18	Z18	
28	0.233333	-116.97	35.5397	38.4484	-96.8075	46.5353	23.9832	-87.2445	59.7712	0.0929684	-78.5358	73.9411	-11.7193	-118.479	7.92701	-40.9452	-118.067	2.009	-63.4698	-121.727	-8.18328	-91.1915	-113.758	-18.2282	-45.2653	-101.538	-26.3637	-75.2159	-85.9808	-35.6989	-95.7735	-93.8211	-40.3363	-35.7972	-67.4946	-41.1396	-53.2563	-41.5186	-40.0798	-55.0696	-84.5797	-53.4226	-7.89558	-57.0384	-47.7602	-7.94018	-34.7606	-30.6585	-2.78024	-132.347	-34.8877	12.9978	-145.174	-27.742	50.4049	-141.335	2.57167	25.7035	
29	0.241667	-121.633	34.653	40.0817	-103.979	47.0116	18.2382	-97.9497	64.9395	-1.9896	-89.662	78.1355	-15.877	-122.103	4.26526	-39.7556	-122.399	0.13776	-65.195	-124.574	-8.31796	-91.7349	-111.79	-24.6453	-47.8236	-95.632	-27.8036	-73.4832	-71.7057	-31.8992	-97.4346	-91.5178	-38.4104	-34.4622	-63.5281	-37.5345	-48.9095	-35.7931	-34.9171	-48.1544	-81.8491	-48.5949	-7.5546	-54.4667	-40.3648	-8.2239	-36.3682	-19.8053	-1.02764	-132.073	-31.4335	16.6557	-141.827	-28.6165	48.0114	-143.345	1.86951	25.2872	
30	0.25	-126.257	30.4401	34.9701	-112.824	50.849	14.1799	-105.257	59.8716	-5.55261	-100.034	75.397	-24.2318	-127.156	4.01258	-45.6343	-124.844	-5.71001	-63.8018	-127.023	-17.8115	-91.7637	-110.04	-25.2652	-45.2973	-89.9441	-28.5322	-72.1154	-63.9593	-29.4874	-88.8826	-88.2	-38.5129	-34.9962	-57.8569	-35.2988	-45.371	-32.9239	-21.142	-43.1654	-77.0569	-47.6269	-6.87995	-54.6984	-37.3682	-6.6595	-36.0104	-10.542	2.36018	-130.967	-39.2301	14.4564	-140.949	-32.86	49.9402	-145.064	-3.40661	23.9713	
31	0.258333	-131.537	31.3673	35.7863	-119.478	52.2038	13.0794	-114.68	59.0813	-8.54864	-111.718	76.7312	-25.7943	-128.323	-2.36958	-45.397	-127.178	-6.68097	-66.4434	-127.128	-18.6951	-91.2361	-106.998	-24.5331	-49.8021	-85.1502	-24.1908	-71.5105	-56.6876	-20.1736	-87.9015	-86.1535	-38.5861	-30.4617	-59.9194	-29.5639	-42.4779	-32.3013	-13.9255	-38.1739	-76.6726	-47.9873	-4.61807	-50.8216	-31.8184	-6.10584	-40.8279	-7.44499	1.18659	-129.606	-39.1141	16.4574	-139.114	-31.4419	51.4929	-145.773	-1.47642	22.5704	
32	0.266667	-135.577	30.8844	33.2262	-125.998	49.5823	12.1647	-123.009	61.2709	-12.1828	-118.792	71.2879	-31.0064	-131.159	-0.930775	-42.472	-127.121	-11.6158	-67.8157	-124.725	-24.565	-90.9334	-106.366	-25.9869	-45.6879	-83.9996	-24.2701	-69.3362	-53.7178	-14.0667	-81.9596	-86.4091	-34.5661	-31.8001	-58.1681	-25.9864	-41.3293	-34.5401	-7.43796	-34.0812	-73.1371	-45.0907	-5.19137	-54.0165	-24.4453	-8.78631	-45.7873	2.98627	3.91047	-127.209	-40.7637	16.4299	-137.449	-32.0105	51.9548	-144.225	-8.58896	25.289	
33	0.275	-141.554	31.9928	32.7934	-132.877	49.2933	8.52941	-129.699	58.1011	-19.3257	-125.841	68.2121	-33.5743	-129.97	-7.30319	-43.1346	-126.83	-16.6008	-67.6073	-122.395	-27.0466	-92.3804	-104.529	-24.9081	-48.5495	-81.8133	-22.2383	-68.1281	-53.0056	-10.1364	-77.9586	-83.2224	-31.721	-32.5016	-57.0152	-20.3183	-39.5647	-34.7328	1.59966	-28.9547	-68.9959	-41.1446	-7.56993	-54.1968	-19.303	-7.90869	-47.5846	6.46982	5.02656	-127.241	-38.6079	15.6525	-136.489	-34.3914	47.9249	-147.187	-10.9008	23.0235	
34	0.283333	-143.379	28.3333	32.6834	-137.841	49.0459	8.64529	-134.49	54.7577	-16.9308	-131.518	63.7314	-37.7096	-132.029	-7.87842	-43.3022	-125.898	-19.9211	-71.5145	-120.347	-29.6839	-90.0643	-103.609	-25.7843	-49.6953	-77.5035	-20.1545	-68.3292	-47.3941	-2.42254	-74.7269	-81.7056	-33.5642	-30.7133	-55.6258	-13.3615	-40.275	-36.8248	8.29976	-25.2565	-71.6861	-41.3055	-4.56529	-53.156	-14.8231	-7.30464	-56.2952	12.1367	6.77399	-125.318	-39.5674	16.6462	-134.829	-35.0721	52.8594	-146.03	-13.6463	23.5266	
